<mxfile host="app.diagrams.net" modified="2024-02-22T12:42:47.173Z" agent="Mozilla/5.0 (Windows NT 10.0; Win64; x64) AppleWebKit/537.36 (KHTML, like Gecko) Chrome/121.0.0.0 Safari/537.36 Edg/121.0.0.0" etag="mJfSfNAJcgXu4vuusGKX" version="23.1.5" type="device">
  <diagram name="Page-1" id="eYKjG12wCm1GWG5YV6CA">
    <mxGraphModel dx="1848" dy="1047" grid="1" gridSize="10" guides="1" tooltips="1" connect="1" arrows="1" fold="1" page="1" pageScale="1" pageWidth="827" pageHeight="1169" math="0" shadow="0">
      <root>
        <mxCell id="0" />
        <mxCell id="1" parent="0" />
        <mxCell id="evMqEQt09AHWr2AXkn4W-3" value="" style="rounded=0;whiteSpace=wrap;html=1;rotation=90;" vertex="1" parent="1">
          <mxGeometry x="-54.62" y="167" width="899.25" height="642.87" as="geometry" />
        </mxCell>
        <mxCell id="evMqEQt09AHWr2AXkn4W-4" value="Logo" style="whiteSpace=wrap;html=1;aspect=fixed;" vertex="1" parent="1">
          <mxGeometry x="80" y="40" width="80" height="80" as="geometry" />
        </mxCell>
        <mxCell id="evMqEQt09AHWr2AXkn4W-5" value="Navigation menu" style="rounded=0;whiteSpace=wrap;html=1;" vertex="1" parent="1">
          <mxGeometry x="160" y="90" width="550" height="30" as="geometry" />
        </mxCell>
        <mxCell id="evMqEQt09AHWr2AXkn4W-6" value="&lt;p style=&quot;line-height: 120%;&quot;&gt;&lt;font style=&quot;font-size: 22px;&quot;&gt;HERO&lt;/font&gt;&lt;/p&gt;&lt;p style=&quot;line-height: 120%;&quot;&gt;&lt;br&gt;&lt;/p&gt;&lt;p style=&quot;line-height: 120%;&quot;&gt;&lt;br&gt;&lt;/p&gt;&lt;p style=&quot;line-height: 120%;&quot;&gt;&lt;br&gt;&lt;/p&gt;&lt;p style=&quot;line-height: 120%;&quot;&gt;&lt;br&gt;&lt;/p&gt;&lt;p style=&quot;line-height: 120%;&quot;&gt;&lt;br&gt;&lt;/p&gt;" style="rounded=0;whiteSpace=wrap;html=1;" vertex="1" parent="1">
          <mxGeometry x="81.25" y="167" width="630" height="183" as="geometry" />
        </mxCell>
        <mxCell id="evMqEQt09AHWr2AXkn4W-7" value="" style="rounded=0;whiteSpace=wrap;html=1;" vertex="1" parent="1">
          <mxGeometry x="80" y="300" width="630" height="50" as="geometry" />
        </mxCell>
        <mxCell id="evMqEQt09AHWr2AXkn4W-10" value="Menu Ã  propos " style="rounded=0;whiteSpace=wrap;html=1;" vertex="1" parent="1">
          <mxGeometry x="500" y="380" width="210" height="390" as="geometry" />
        </mxCell>
        <mxCell id="evMqEQt09AHWr2AXkn4W-11" value="Icon" style="whiteSpace=wrap;html=1;aspect=fixed;" vertex="1" parent="1">
          <mxGeometry x="565" y="440" width="80" height="80" as="geometry" />
        </mxCell>
        <mxCell id="evMqEQt09AHWr2AXkn4W-12" value="&lt;h1&gt;Titre&lt;/h1&gt;&lt;p&gt;Lorem ipsum dolor sit amet, consectetur adipisicing elit, sed do eiusmod tempor incididunt ut labore et dolore magna aliqua.&lt;/p&gt;&lt;p&gt;&lt;span style=&quot;background-color: initial;&quot;&gt;Lorem ipsum dolor sit amet, consectetur adipisicing elit, sed do eiusmod tempor incididunt ut labore et dolore magna aliqua.&lt;/span&gt;&lt;br&gt;&lt;/p&gt;&lt;p&gt;Lorem ipsum dolor sit amet, consectetur adipisicing elit, sed do eiusmod tempor incididunt ut labore et dolore magna aliqua.&lt;span style=&quot;background-color: initial;&quot;&gt;&lt;br&gt;&lt;/span&gt;&lt;/p&gt;&lt;p&gt;Lorem ipsum dolor sit amet, consectetur adipisicing elit, sed do eiusmod tempor incididunt ut labore et dolore magna aliqua.&lt;br&gt;&lt;/p&gt;&lt;p&gt;Lorem ipsum dolor sit amet, consectetur adipisicing elit, sed do eiusmod tempor incididunt ut labore et dolore magna aliqua.&lt;br&gt;&lt;/p&gt;&lt;p&gt;Lorem ipsum dolor sit amet, consectetur adipisicing elit, sed do eiusmod tempor incididunt ut labore et dolore magna aliqua.&lt;br&gt;&lt;/p&gt;&lt;p&gt;Lorem ipsum dolor sit amet, consectetur adipisicing elit, sed do eiusmod tempor incididunt ut labore et dolore magna aliqua.&lt;br&gt;&lt;/p&gt;" style="text;html=1;spacing=5;spacingTop=-20;whiteSpace=wrap;overflow=hidden;rounded=0;" vertex="1" parent="1">
          <mxGeometry x="90" y="380" width="400" height="380" as="geometry" />
        </mxCell>
        <mxCell id="evMqEQt09AHWr2AXkn4W-14" value="Partenaire" style="rounded=0;whiteSpace=wrap;html=1;" vertex="1" parent="1">
          <mxGeometry x="490" y="830" width="225" height="100" as="geometry" />
        </mxCell>
        <mxCell id="evMqEQt09AHWr2AXkn4W-18" value="Galerie" style="rounded=0;whiteSpace=wrap;html=1;" vertex="1" parent="1">
          <mxGeometry x="292.5" y="830" width="207.5" height="100" as="geometry" />
        </mxCell>
        <mxCell id="evMqEQt09AHWr2AXkn4W-19" value="Newsletter" style="rounded=0;whiteSpace=wrap;html=1;" vertex="1" parent="1">
          <mxGeometry x="80" y="830" width="210" height="100" as="geometry" />
        </mxCell>
        <mxCell id="evMqEQt09AHWr2AXkn4W-20" value="" style="line;strokeWidth=1;fillColor=none;align=left;verticalAlign=middle;spacingTop=-1;spacingLeft=3;spacingRight=3;rotatable=0;labelPosition=right;points=[];portConstraint=eastwest;strokeColor=inherit;" vertex="1" parent="1">
          <mxGeometry x="80" y="762" width="420" height="8" as="geometry" />
        </mxCell>
        <mxCell id="evMqEQt09AHWr2AXkn4W-21" value="&lt;font style=&quot;font-size: 19px;&quot;&gt;Header&lt;/font&gt;" style="text;html=1;align=center;verticalAlign=middle;whiteSpace=wrap;rounded=0;" vertex="1" parent="1">
          <mxGeometry x="326" y="50" width="176" height="30" as="geometry" />
        </mxCell>
        <mxCell id="evMqEQt09AHWr2AXkn4W-22" value="&lt;font style=&quot;font-size: 22px;&quot;&gt;FOOTER&lt;/font&gt;" style="text;html=1;align=center;verticalAlign=middle;whiteSpace=wrap;rounded=0;" vertex="1" parent="1">
          <mxGeometry x="326.25" y="830" width="140" height="30" as="geometry" />
        </mxCell>
        <mxCell id="evMqEQt09AHWr2AXkn4W-23" value="&lt;font style=&quot;font-size: 22px;&quot;&gt;ARTICLE&lt;/font&gt;" style="text;html=1;align=center;verticalAlign=middle;whiteSpace=wrap;rounded=0;" vertex="1" parent="1">
          <mxGeometry x="220" y="380" width="140" height="30" as="geometry" />
        </mxCell>
        <mxCell id="evMqEQt09AHWr2AXkn4W-24" value="&lt;font style=&quot;font-size: 22px;&quot;&gt;ASIDE&lt;/font&gt;" style="text;html=1;align=center;verticalAlign=middle;whiteSpace=wrap;rounded=0;" vertex="1" parent="1">
          <mxGeometry x="535" y="380" width="140" height="30" as="geometry" />
        </mxCell>
        <mxCell id="evMqEQt09AHWr2AXkn4W-25" value="Social Menu" style="rounded=0;whiteSpace=wrap;html=1;" vertex="1" parent="1">
          <mxGeometry x="502" y="730" width="208" height="40" as="geometry" />
        </mxCell>
        <mxCell id="evMqEQt09AHWr2AXkn4W-26" value="" style="shape=umlDestroy;whiteSpace=wrap;html=1;strokeWidth=3;targetShapes=umlLifeline;" vertex="1" parent="1">
          <mxGeometry x="80" y="170" width="630" height="130" as="geometry" />
        </mxCell>
        <mxCell id="evMqEQt09AHWr2AXkn4W-27" value="Redirect bouton" style="rounded=1;whiteSpace=wrap;html=1;" vertex="1" parent="1">
          <mxGeometry x="610" y="310" width="90" height="30" as="geometry" />
        </mxCell>
      </root>
    </mxGraphModel>
  </diagram>
</mxfile>
